<?xml version="1.0" standalone="no"?>
<!DOCTYPE svg PUBLIC "-//W3C//DTD SVG 20010904//EN"
 "http://www.w3.org/TR/2001/REC-SVG-20010904/DTD/svg10.dtd">
<svg version="1.0" xmlns="http://www.w3.org/2000/svg"
 width="1468.000000pt" height="1470.000000pt" viewBox="0 0 1468.000000 1470.000000"
 preserveAspectRatio="xMidYMid meet">

<g transform="translate(0.000000,1470.000000) scale(0.100000,-0.100000)"
fill="#000000" stroke="none">
<path d="M0 7350 l0 -7350 7340 0 7340 0 0 7350 0 7350 -7340 0 -7340 0 0
-7350z m7401 3673 c-3 -234 -2 -242 17 -252 12 -6 32 -11 45 -11 31 0 37 -15
37 -100 0 -75 11 -90 62 -90 40 0 48 -18 48 -113 0 -98 10 -127 43 -127 52 -1
50 34 38 -681 -7 -365 -16 -913 -21 -1217 -4 -304 -10 -556 -13 -558 -3 -3
-157 -2 -343 2 l-337 7 6 336 c3 185 11 644 17 1021 8 499 15 703 25 750 7 36
16 125 20 198 6 140 15 169 53 178 25 7 29 19 36 113 5 70 17 89 61 97 47 8
55 21 55 84 0 75 6 88 45 104 l32 14 6 158 c4 88 7 187 7 221 0 81 13 115 43
111 l22 -3 -4 -242z m2271 -390 c10 -9 18 -24 18 -33 0 -33 28 -43 146 -49 86
-4 117 -10 125 -21 5 -8 8 -71 7 -140 -1 -86 2 -136 12 -161 11 -31 11 -128 2
-605 -7 -313 -17 -812 -22 -1109 -6 -297 -13 -573 -16 -612 l-6 -73 -191 1
c-106 1 -241 4 -302 8 l-109 6 2 135 c2 137 14 587 32 1210 6 190 15 557 20
815 6 259 13 485 16 502 5 36 28 53 70 53 31 0 64 25 64 50 0 9 5 21 12 28 18
18 98 15 120 -5z m-1807 -340 c14 -16 47 -62 73 -103 26 -41 81 -124 122 -185
42 -60 81 -122 89 -136 7 -14 37 -56 67 -94 30 -37 54 -71 54 -76 0 -5 9 -13
21 -19 16 -9 26 -8 43 3 78 51 146 43 235 -29 39 -32 63 -45 90 -46 48 -2 104
-5 171 -8 44 -2 69 5 125 30 117 53 254 51 291 -5 13 -20 15 -43 10 -127 -6
-106 -14 -572 -21 -1257 -3 -217 -6 -396 -8 -397 -4 -5 -1094 14 -1304 22
l-153 6 5 207 c15 623 28 1012 35 1056 4 28 4 57 -1 66 -8 16 7 1081 16 1107
6 17 11 15 40 -15z m-1072 -125 c15 -8 17 -28 17 -194 0 -154 3 -189 16 -210
15 -22 16 -54 10 -287 -21 -826 -25 -1069 -26 -1366 l0 -223 -517 6 c-285 4
-526 10 -537 13 -17 5 -18 22 -12 452 17 1133 26 1551 36 1575 6 16 20 28 37
32 15 3 33 7 39 9 6 2 14 41 18 90 10 142 -43 128 464 120 240 -4 445 -12 455
-17z m-1201 -30 c2 -13 0 -149 -3 -303 -4 -154 -12 -550 -18 -880 -6 -330 -14
-700 -17 -822 l-6 -223 -29 0 c-19 0 -29 5 -29 14 0 18 -33 30 -60 21 -11 -3
-20 -13 -20 -21 0 -10 -13 -14 -50 -14 -43 0 -50 3 -50 20 0 27 -44 27 -67 0
-14 -16 -25 -19 -53 -14 -19 4 -39 13 -43 20 -11 19 -73 18 -81 -1 -3 -10 -19
-15 -47 -15 l-42 0 7 433 c11 787 26 1227 43 1281 40 133 88 191 203 247 80
39 129 53 225 64 33 4 65 12 71 16 7 5 15 49 19 97 4 48 9 90 12 95 9 15 31 6
35 -15z m-1014 -51 c9 -7 12 -31 10 -74 -2 -59 0 -66 22 -83 l25 -19 0 -278
c1 -153 2 -283 3 -289 1 -6 20 -16 41 -23 64 -19 131 -111 131 -181 0 -8 9
-31 19 -51 21 -40 21 11 5 -709 -3 -173 -6 -348 -6 -388 l0 -72 -267 5 c-146
3 -344 8 -440 11 l-174 6 7 302 c3 165 8 378 11 471 3 94 7 312 10 485 11 616
19 770 43 778 9 3 12 -25 12 -116 l0 -120 29 -12 c21 -8 35 -9 49 -1 16 9 20
25 25 124 4 89 10 122 26 153 12 21 21 49 21 61 0 12 8 27 18 32 22 13 362 3
380 -12z m6060 -613 c22 -4 22 -5 22 -197 0 -174 -7 -501 -26 -1204 l-7 -253
-242 0 c-134 0 -251 3 -260 6 -14 6 -15 26 -10 183 3 97 10 384 15 638 4 254
11 467 15 472 4 7 47 11 105 11 59 0 101 4 105 11 4 5 9 74 12 152 6 160 12
184 45 189 30 4 197 -1 226 -8z m-6875 -1144 c16 -13 29 -35 33 -58 3 -20 13
-56 21 -79 10 -26 13 -55 9 -77 -7 -37 -60 -96 -86 -96 -9 0 -20 -4 -26 -10
-13 -13 -88 25 -114 57 -31 39 -35 83 -12 134 11 24 23 59 27 76 13 66 95 95
148 53z m-654 -109 c11 -11 27 -44 37 -74 22 -72 12 -105 -45 -135 l-43 -22
-40 31 c-37 30 -39 35 -35 73 5 47 26 106 46 130 18 22 57 20 80 -3z m285 8
c13 -7 30 -26 36 -43 6 -17 16 -39 21 -48 5 -10 9 -36 9 -58 0 -36 -4 -42 -40
-65 -22 -14 -45 -25 -52 -25 -25 0 -87 50 -90 72 -6 32 36 146 59 163 22 18
26 18 57 4z m7580 -38 c9 -10 20 -36 23 -57 3 -22 14 -58 25 -82 10 -24 18
-52 18 -61 0 -26 -53 -101 -81 -115 -15 -7 -25 -22 -27 -39 -5 -39 -38 -37
-46 3 -3 19 -14 34 -29 39 -54 21 -82 117 -53 185 9 21 16 54 16 72 0 50 29
74 88 74 35 0 54 -5 66 -19z m301 -113 c24 -11 29 -22 51 -111 12 -50 -4 -94
-46 -127 l-40 -32 -33 26 c-17 15 -38 31 -44 37 -17 13 -17 111 1 153 14 34
50 66 73 66 7 0 24 -5 38 -12z m312 -16 c13 -9 32 -43 43 -76 17 -47 19 -64
10 -90 -8 -26 -55 -68 -93 -85 -5 -2 -26 14 -48 35 -31 30 -39 45 -39 74 0 39
36 141 53 152 20 13 51 8 74 -10z m-9847 -408 c6 -6 23 -115 38 -243 14 -127
29 -231 32 -231 3 0 32 108 65 239 51 206 62 241 80 245 37 10 131 6 147 -6
10 -8 38 -104 74 -257 45 -189 60 -237 65 -215 4 16 20 125 35 242 15 117 31
218 36 225 8 14 216 23 235 9 9 -6 -5 -101 -58 -392 -39 -212 -74 -389 -78
-393 -25 -25 -220 -37 -278 -17 -28 10 -30 16 -68 170 -22 88 -42 160 -45 160
-3 0 -18 -50 -34 -110 -55 -213 -53 -208 -94 -220 -49 -13 -201 -13 -240 1
-18 6 -32 19 -35 32 -3 12 -31 188 -63 391 -48 309 -55 370 -43 377 19 13 216
6 229 -7z m1364 0 c11 -29 7 -169 -6 -182 -8 -8 -49 -12 -120 -12 l-108 0 0
-60 0 -60 85 0 85 0 0 -69 c0 -102 1 -101 -92 -101 l-79 0 3 -57 3 -58 115 -5
114 -5 9 -40 c9 -44 1 -123 -15 -142 -13 -16 -414 -18 -438 -3 -13 8 -15 64
-17 391 -2 244 1 388 8 400 9 18 24 19 228 19 190 0 220 -2 225 -16z m557 10
l45 -6 101 -396 c56 -218 100 -399 98 -401 -2 -2 -45 -6 -94 -9 -131 -7 -144
0 -168 96 l-19 77 -95 3 -95 3 -18 -75 c-9 -41 -25 -81 -33 -88 -16 -13 -185
-19 -197 -7 -4 3 40 183 97 400 l103 394 30 6 c39 9 191 10 245 3z m527 0 l22
-6 0 -294 0 -294 95 0 c112 0 115 -2 115 -110 0 -115 10 -110 -208 -110 -154
0 -192 3 -210 16 l-22 15 0 389 c0 362 1 389 18 393 26 7 164 8 190 1z m812
-13 c11 -21 14 -149 4 -175 -5 -13 -22 -16 -80 -16 l-74 0 0 -295 c0 -281 -1
-295 -19 -305 -23 -12 -180 -13 -198 -2 -10 6 -13 82 -15 302 l-3 295 -77 3
c-75 3 -78 4 -85 30 -12 40 -7 151 7 167 10 13 56 15 271 15 245 0 259 -1 269
-19z m294 9 l26 -10 0 -140 0 -140 80 0 80 0 0 140 c0 165 -7 155 120 155 47
0 93 -3 103 -7 16 -7 17 -35 17 -398 0 -363 -1 -391 -17 -398 -23 -9 -183 -9
-205 0 -16 7 -18 23 -18 143 l0 135 -80 0 -80 0 0 -135 c0 -159 7 -150 -120
-150 -47 0 -93 3 -102 7 -17 7 -18 35 -18 398 l0 391 23 9 c30 12 160 12 191
0z m736 1 c25 -7 25 -10 52 -233 14 -125 28 -235 30 -245 2 -10 31 90 63 221
33 132 66 245 73 253 14 13 126 19 156 7 10 -4 32 -79 72 -242 31 -131 60
-240 63 -244 4 -4 21 101 39 234 18 133 35 245 38 248 3 3 57 7 120 8 96 3
115 1 120 -12 8 -22 -128 -767 -143 -782 -32 -32 -275 -32 -299 0 -7 10 -28
83 -48 163 -20 80 -37 148 -39 150 -4 3 -50 -156 -78 -269 -10 -43 -15 -49
-48 -58 -82 -23 -281 -6 -281 23 0 7 -27 183 -59 392 -43 278 -56 382 -48 387
15 9 183 8 217 -1z m1370 3 l35 -6 101 -398 102 -398 -30 -6 c-46 -9 -164 -7
-191 3 -15 6 -27 21 -31 38 -4 15 -14 52 -22 81 l-15 52 -93 0 -94 0 -16 -74
c-10 -41 -24 -80 -33 -88 -17 -14 -185 -19 -198 -6 -3 3 40 184 97 402 89 343
106 396 123 399 32 7 227 7 265 1z m525 -15 c7 -8 36 -125 63 -264 27 -137 52
-243 55 -235 4 8 25 121 48 250 24 135 47 241 56 250 11 12 40 15 133 15 65 0
122 -3 126 -8 4 -4 -39 -183 -96 -397 l-103 -390 -36 -7 c-45 -10 -238 -10
-271 -1 -24 7 -30 28 -124 385 -54 208 -101 386 -103 395 -6 21 29 27 150 24
61 -2 92 -7 102 -17z m1029 -32 c5 -28 5 -71 0 -100 l-9 -52 -112 -3 -113 -3
0 -59 0 -60 79 0 c73 0 79 -2 85 -22 9 -35 7 -94 -4 -122 -9 -25 -13 -26 -85
-26 l-75 0 0 -60 0 -60 114 0 c109 0 114 -1 120 -22 9 -35 7 -124 -4 -152
l-10 -26 -209 0 c-115 0 -216 3 -225 6 -14 5 -16 50 -16 403 0 219 3 401 7
405 4 3 106 5 227 4 l221 -3 9 -48z m713 40 c76 -16 132 -54 163 -110 20 -34
24 -56 24 -117 0 -86 -22 -147 -72 -197 l-31 -31 74 -123 75 -123 -28 -29
c-61 -64 -137 -94 -186 -73 -27 12 -38 30 -86 145 -41 99 -58 131 -72 131 -16
0 -18 -12 -18 -134 0 -130 -1 -134 -22 -140 -30 -8 -156 -8 -185 0 l-23 6 0
388 c0 340 2 391 16 404 13 13 42 16 162 16 81 0 175 -6 209 -13z m767 -3 c3
-9 6 -49 6 -89 0 -110 6 -105 -127 -105 l-114 0 3 -57 3 -58 82 -3 81 -3 6
-37 c4 -20 3 -57 -2 -82 l-8 -45 -82 -3 -83 -3 3 -57 3 -57 115 -5 c111 -5
114 -6 121 -30 11 -38 10 -91 -2 -132 l-10 -38 -214 0 c-181 0 -216 2 -229 16
-14 13 -16 63 -16 390 0 240 4 382 10 395 10 18 23 19 229 19 190 0 220 -2
225 -16z m582 10 c18 -5 33 -54 122 -402 56 -218 99 -398 96 -401 -10 -10
-190 -12 -215 -3 -23 9 -29 22 -46 89 l-19 78 -96 3 -96 3 -13 -67 c-20 -102
-29 -109 -137 -109 -50 0 -93 3 -97 6 -3 4 39 180 95 391 55 212 100 388 100
392 0 16 53 25 165 25 66 1 129 -2 141 -5z m501 0 l23 -6 2 -292 3 -291 95 -3
c60 -2 97 -7 102 -15 11 -18 10 -165 -2 -188 -10 -18 -23 -19 -203 -19 -106 0
-197 4 -204 8 -29 18 -33 70 -33 428 l0 365 23 9 c25 10 161 13 194 4z m814
-16 c13 -23 16 -131 5 -166 -7 -20 -14 -22 -82 -22 l-74 0 0 -299 c0 -263 -2
-300 -16 -305 -9 -3 -58 -6 -109 -6 -84 0 -95 2 -105 20 -6 11 -10 26 -9 33 1
6 1 135 0 285 l-1 272 -75 0 -74 0 -10 38 c-6 20 -11 51 -11 67 0 17 5 47 11
68 l10 37 264 0 c261 0 264 0 276 -22z m268 11 c17 -6 31 -12 31 -12 0 -3 67
-189 80 -222 11 -29 12 -28 60 89 27 65 56 126 64 135 13 12 42 16 124 19 59
1 113 -1 120 -6 11 -7 -13 -63 -107 -250 l-121 -242 0 -149 0 -149 -36 -12
c-38 -13 -190 -10 -212 4 -8 5 -12 50 -12 153 l0 146 -125 244 c-69 134 -125
246 -125 248 0 15 216 19 259 4z m-10209 -1109 c0 -5 -2 -10 -4 -10 -3 0 -8 5
-11 10 -3 6 -1 10 4 10 6 0 11 -4 11 -10z m633 3 c-13 -2 -35 -2 -50 0 -16 2
-5 4 22 4 28 0 40 -2 28 -4z m350 -14 c-8 -8 -13 -7 -18 2 -5 8 -4 10 3 5 7
-4 12 -2 12 5 0 7 3 9 7 6 4 -4 2 -12 -4 -18z m534 -11 c-3 -7 -5 -2 -5 12 0
14 2 19 5 13 2 -7 2 -19 0 -25z m71 25 c-10 -2 -28 -2 -40 0 -13 2 -5 4 17 4
22 1 32 -1 23 -4z m412 -8 c0 -2 -6 -5 -13 -8 -8 -3 -14 1 -14 8 0 7 6 11 14
8 7 -3 13 -6 13 -8z m83 -5 c3 -11 1 -20 -4 -20 -5 0 -9 9 -9 20 0 11 2 20 4
20 2 0 6 -9 9 -20z m220 3 c-6 -16 -5 -16 17 0 30 21 41 22 34 2 -4 -8 -10
-12 -15 -9 -5 3 -17 -2 -26 -12 -16 -15 -17 -15 -24 2 -3 11 -1 22 5 26 16 11
16 10 9 -9z m792 -78 c0 -52 -4 -95 -8 -95 -5 0 -7 41 -5 90 2 54 -1 92 -7 94
-5 3 -3 5 5 5 12 1 15 -16 15 -94z m103 75 c3 -7 0 -10 -6 -6 -8 5 -12 -20
-15 -76 l-3 -83 -1 93 c0 61 3 92 10 89 6 -2 13 -9 15 -17z m303 -7 c-12 -20
-14 -14 -5 12 4 9 9 14 11 11 3 -2 0 -13 -6 -23z m204 -67 c0 -52 -3 -92 -7
-89 -5 2 -8 -1 -8 -6 0 -6 5 -11 10 -11 6 0 10 -5 10 -11 0 -5 -4 -7 -10 -4
-5 3 -10 2 -10 -4 0 -5 6 -12 13 -14 7 -3 5 -6 -5 -6 -16 -1 -18 10 -18 99 0
62 5 108 12 120 7 11 13 20 13 20 0 0 0 -42 0 -94z m84 -148 c-5 -17 -4 -28 2
-28 6 0 7 -4 4 -10 -3 -5 -11 -10 -16 -10 -6 0 -7 5 -4 10 3 6 -2 11 -12 11
-17 1 -17 2 0 6 15 4 17 20 19 136 l1 132 7 -110 c3 -60 3 -122 -1 -137z m280
236 c24 -5 31 -12 31 -30 0 -35 -14 -36 -34 -3 -13 21 -24 29 -39 27 -21 -3
-22 -9 -24 -118 -3 -126 -8 -160 -24 -160 -6 0 -6 6 1 19 5 11 9 72 8 138 l-2
118 -6 -90 -6 -90 -2 94 c-2 79 0 92 13 87 8 -3 15 -1 15 4 0 11 24 13 69 4z
m356 -25 c-6 -17 -9 -19 -17 -8 -7 10 -8 5 -4 -16 5 -24 4 -27 -4 -12 -14 22
-3 67 11 46 7 -11 9 -10 9 5 0 11 3 17 6 13 3 -3 3 -15 -1 -28z m920 23 c12
-8 17 -35 16 -79 -1 -18 4 -33 9 -33 6 0 10 -13 10 -28 0 -16 6 -37 14 -47 13
-19 15 -17 21 18 4 20 11 37 16 37 5 0 9 19 10 43 0 34 2 38 10 22 7 -15 8
-10 6 23 -1 23 1 42 5 42 14 0 9 -77 -7 -106 -8 -16 -15 -37 -15 -46 0 -10 -4
-18 -10 -18 -5 0 -7 -7 -3 -15 7 -19 -16 -107 -27 -100 -4 2 -7 18 -8 35 0 17
-10 59 -21 93 -20 62 -35 123 -36 142 0 6 -4 13 -10 17 -7 5 -7 8 0 8 6 0 15
-4 20 -8z m426 -15 c-6 -6 -11 -18 -10 -26 0 -11 3 -10 9 4 11 28 18 7 23 -73
2 -38 9 -67 17 -72 9 -5 2 -10 -20 -15 -24 -5 -29 -10 -19 -16 17 -11 2 -12
-53 -3 -46 8 -51 25 -6 19 18 -2 43 -2 56 2 20 5 22 10 17 35 -4 16 -7 46 -7
65 0 25 -3 32 -9 22 -7 -11 -9 -11 -9 4 0 9 -4 17 -9 17 -5 0 -7 10 -3 22 3
14 2 19 -6 14 -7 -4 -12 -19 -13 -34 0 -15 -3 -21 -6 -14 -9 23 7 64 22 58 8
-3 15 -1 15 5 0 6 5 7 11 3 8 -4 8 -9 0 -17z m373 15 c-7 -4 -14 -18 -16 -32
-4 -21 -6 -22 -12 -7 -11 23 0 47 21 47 12 0 14 -3 7 -8z m560 -14 c10 -38 7
-76 -6 -81 -10 -3 -10 -11 -3 -33 15 -40 7 -141 -11 -148 -8 -3 -14 1 -14 10
0 9 5 12 13 8 9 -6 9 -4 1 7 -7 8 -10 40 -8 78 2 35 0 69 -5 75 -5 6 -11 20
-14 31 -5 16 -6 15 -5 -5 1 -39 -14 -110 -22 -105 -4 2 -5 -7 -2 -22 3 -18 -1
-29 -13 -35 -14 -9 -15 -12 -4 -20 11 -7 11 -11 1 -15 -6 -2 -9 -10 -6 -15 4
-7 2 -8 -4 -4 -7 4 -12 22 -12 40 0 34 -26 124 -41 141 -9 9 -10 -2 -11 -112
0 -47 -4 -63 -14 -63 -16 0 -18 18 -19 172 0 84 3 104 13 96 8 -7 12 -7 12 1
0 6 6 11 13 11 12 0 16 -16 19 -72 0 -15 5 -25 9 -22 5 3 10 -5 11 -18 1 -13
2 -30 3 -38 0 -8 6 -24 12 -34 9 -17 12 -14 18 22 4 23 11 42 17 42 5 0 8 8 7
18 -3 18 9 91 17 104 11 17 42 7 48 -14z m170 -75 c-1 -96 -1 -97 3 -13 2 47
8 89 14 95 7 7 9 -36 7 -134 -2 -118 -6 -145 -18 -148 -13 -4 -13 -3 0 6 13 9
12 11 -5 11 -17 0 -17 2 -5 10 10 6 11 10 3 10 -19 0 -18 260 1 260 0 0 1 -44
0 -97z m306 77 c21 -21 27 -60 10 -60 -19 0 -25 5 -22 18 2 6 -2 12 -9 12 -6
0 -9 8 -6 20 3 11 1 20 -4 20 -5 0 -9 -7 -9 -15 0 -8 -9 -15 -20 -15 -21 0
-37 -38 -26 -65 7 -19 -8 -20 -23 -1 -16 19 -10 88 7 94 11 3 12 0 3 -16 -6
-11 -10 -33 -10 -49 1 -20 3 -22 6 -8 16 72 24 85 54 85 16 0 38 -9 49 -20z
m210 -120 c0 -118 -2 -140 -15 -140 -13 0 -15 22 -15 136 0 87 4 133 10 129 6
-3 10 -1 10 4 0 6 2 11 5 11 3 0 5 -63 5 -140z m210 96 c11 -25 20 -49 20 -53
0 -15 25 -63 33 -63 9 0 11 27 7 103 -2 53 0 59 16 55 17 -3 19 -15 19 -147 0
-120 -3 -145 -15 -148 -13 -4 -13 -3 0 6 13 9 13 11 -2 11 -9 0 -20 5 -24 12
-5 8 -1 9 12 5 18 -7 18 -6 2 7 -10 7 -18 20 -18 29 0 8 -6 17 -12 19 -7 3
-12 19 -10 39 2 25 0 30 -8 19 -8 -13 -10 -12 -10 3 0 10 -5 17 -11 15 -7 -2
-12 -34 -13 -83 -1 -60 -4 -79 -16 -82 -13 -4 -13 -3 0 6 13 9 13 11 -1 11
-12 0 -14 9 -9 54 3 30 3 53 0 51 -4 -2 -6 32 -6 75 1 44 5 80 9 80 5 0 5 5 2
10 -3 6 -2 10 4 10 6 0 20 -20 31 -44z m396 19 c8 -10 14 -22 14 -27 0 -13
-18 -9 -23 5 -3 7 -6 5 -6 -5 -1 -10 6 -18 15 -18 8 0 13 -4 9 -10 -9 -15 -35
0 -35 22 0 16 -6 19 -37 16 l-38 -3 3 -63 c2 -36 -2 -69 -8 -77 -8 -9 -8 -15
0 -20 6 -3 8 -11 4 -16 -8 -13 16 -40 29 -32 6 3 7 1 3 -5 -4 -7 -2 -12 3 -12
6 0 11 5 11 10 0 6 3 9 8 9 22 -4 27 5 26 41 0 22 -4 43 -7 47 -4 3 -7 1 -7
-5 0 -7 -4 -12 -9 -12 -5 0 -8 8 -7 18 2 11 13 18 35 20 29 3 31 1 27 -22 -3
-14 -7 -30 -10 -35 -4 -5 0 -12 6 -14 10 -4 9 -8 -2 -16 -10 -7 -11 -11 -3
-11 16 0 -5 -49 -21 -51 -6 -1 -23 -3 -39 -5 -15 -1 -25 1 -22 6 3 6 -1 7 -11
3 -33 -13 -44 23 -44 149 0 114 1 119 23 127 37 14 98 7 113 -14z m404 14 c0
18 68 13 89 -8 27 -27 28 -120 1 -154 -21 -27 -26 -47 -11 -47 13 0 20 -49 7
-54 -7 -3 -6 -8 4 -15 13 -9 13 -11 -2 -11 -9 0 -19 8 -22 18 -11 40 -20 88
-18 102 1 10 -1 11 -4 3 -3 -7 -14 -13 -25 -13 -16 0 -19 -8 -20 -47 -1 -27
-1 -51 0 -55 0 -5 -5 -8 -13 -8 -10 0 -14 16 -15 58 -4 238 -4 247 14 232 10
-9 15 -9 15 -1z m290 -3 c0 7 19 11 52 10 41 -1 53 -5 56 -18 3 -13 -5 -17
-35 -18 -70 -1 -68 0 -68 -51 0 -26 2 -44 5 -40 3 3 23 3 45 0 22 -3 33 -7 25
-8 -13 -1 -13 -2 0 -11 16 -10 12 -12 -35 -14 -29 -1 -30 -3 -30 -46 l0 -45
39 3 c38 4 56 -7 56 -35 0 -15 -97 -18 -118 -4 -9 5 -12 25 -10 59 2 29 0 53
-4 54 -5 2 -2 23 7 47 16 47 20 82 4 42 -14 -36 -19 -21 -12 38 4 34 9 48 14
39 5 -8 9 -9 9 -2z m370 3 c0 -8 4 -8 15 1 13 10 15 9 15 -9 0 -14 -6 -21 -20
-21 -11 0 -20 5 -20 12 0 6 -3 8 -6 5 -4 -4 -6 -67 -5 -142 2 -113 -1 -135
-13 -135 -12 0 -15 20 -15 108 -1 59 -5 123 -10 142 -5 19 -9 29 -10 23 -2
-20 -31 -15 -31 5 0 15 9 19 50 21 33 1 50 -2 50 -10z m220 -108 c0 -125 6
-143 45 -137 18 3 20 13 25 127 4 88 9 125 18 127 9 1 12 -30 12 -133 0 -123
-2 -135 -19 -145 -24 -12 -81 -13 -100 -1 -18 12 -28 229 -12 260 24 43 31 20
31 -98z m380 109 c17 -9 20 -22 20 -90 0 -49 -4 -80 -11 -82 -9 -3 -9 -20 -2
-61 9 -50 8 -57 -5 -55 -8 2 -21 25 -29 52 -15 52 -43 92 -43 62 0 -9 -4 -16
-9 -16 -4 0 -6 -17 -4 -37 2 -20 1 -43 -2 -52 -6 -14 -8 -13 -21 3 -15 21 -20
192 -8 253 5 27 10 30 50 32 25 0 54 -4 64 -9z m218 -2 c5 -7 13 -24 17 -38 3
-14 12 -38 19 -55 35 -85 35 -85 35 13 1 85 2 92 21 92 19 0 20 -7 20 -150 0
-143 -1 -150 -20 -150 -15 0 -20 7 -20 24 0 14 -9 41 -21 61 -12 19 -19 41
-17 48 6 16 -29 50 -35 34 -2 -7 -2 -47 0 -89 4 -65 2 -78 -11 -78 -8 0 -18 5
-22 12 -5 7 -2 8 7 3 11 -6 12 -5 2 6 -14 14 -19 260 -6 272 10 10 19 8 31 -5z
m396 -10 c15 -20 22 -58 12 -58 -2 0 -12 -3 -22 -7 -13 -5 -16 -3 -12 9 8 20
-10 38 -38 38 -30 0 -43 -59 -17 -77 9 -7 23 -13 30 -13 7 0 13 -5 13 -12 0
-6 3 -8 6 -5 4 3 14 2 23 -3 31 -16 26 -138 -5 -126 -7 3 -13 0 -11 -6 4 -19
-32 -21 -69 -3 -34 16 -45 35 -21 35 8 0 8 3 -2 9 -20 13 -6 42 16 34 10 -4
12 -8 5 -11 -18 -6 9 -29 39 -34 21 -3 24 1 27 33 3 36 2 37 -47 55 l-51 18 0
45 c0 87 9 97 77 100 22 1 36 -6 47 -21z m-9046 -24 c-3 -14 -5 -12 -10 9 -3
19 -2 25 4 19 6 -6 8 -18 6 -28z m1167 26 c3 -5 2 -10 -4 -10 -5 0 -13 5 -16
10 -3 6 -2 10 4 10 5 0 13 -4 16 -10z m1014 -35 c0 -5 -6 -1 -14 9 -10 13 -15
15 -15 6 0 -7 -2 -11 -5 -8 -3 3 -3 13 1 22 6 15 7 15 20 -1 7 -10 13 -22 13
-28z m68 18 c-3 -16 -9 -37 -13 -47 -5 -14 -4 -17 5 -12 10 6 10 4 0 -12 -7
-12 -17 -18 -22 -15 -5 3 -7 -8 -5 -23 2 -16 8 -28 14 -27 13 3 13 -51 0 -64
-4 -4 -5 6 -1 22 5 23 4 26 -4 15 -7 -10 -11 -11 -11 -3 0 7 -7 10 -15 7 -8
-4 -12 -10 -9 -15 3 -5 -1 -16 -10 -24 -11 -11 -16 -12 -19 -2 -3 7 -6 5 -6
-5 -1 -10 4 -18 10 -18 5 0 7 -5 3 -12 -6 -9 -9 -9 -12 0 -2 7 -8 10 -12 7 -5
-3 -4 8 1 25 6 17 16 27 22 23 6 -4 8 0 4 11 -4 9 -2 25 5 35 9 14 7 28 -6 61
-9 23 -14 45 -12 48 9 9 36 -65 36 -99 0 -18 3 -29 7 -25 10 10 4 79 -8 91 -5
5 -9 14 -9 20 0 5 5 2 11 -7 16 -29 28 -21 40 27 12 49 25 63 16 18z m823 1
c0 -13 -5 -26 -12 -30 -8 -5 -9 -2 -5 11 4 9 3 23 -3 30 -7 8 -5 12 5 12 9 0
15 -10 15 -23z m1020 -15 c0 -16 5 -29 10 -29 6 0 10 -9 10 -21 0 -11 -4 -18
-9 -15 -5 4 -11 0 -14 -6 -2 -7 -6 15 -8 49 -2 33 -1 59 4 56 4 -2 7 -17 7
-34z m178 -94 c2 -92 -1 -135 -8 -135 -6 0 -8 -5 -4 -12 4 -6 3 -8 -2 -5 -6 3
-9 50 -8 104 1 54 3 117 3 141 1 23 4 42 9 42 4 0 8 -61 10 -135z m528 126
c-4 -5 -2 -11 3 -13 4 -1 18 -23 29 -48 19 -41 21 -43 22 -17 0 18 4 26 11 21
8 -4 9 1 5 17 -6 20 -5 21 4 7 7 -12 7 -30 -1 -61 -10 -40 -8 -49 14 -93 36
-71 41 -94 24 -94 -10 0 -14 7 -10 23 4 18 3 19 -6 7 -11 -15 -15 -8 -12 22 1
10 -2 26 -8 35 -8 14 -10 15 -11 3 0 -13 -1 -13 -11 0 -9 12 -12 13 -16 1 -5
-11 -7 -11 -14 0 -6 10 -9 5 -9 -16 -1 -31 -29 -93 -30 -65 0 13 -1 13 -10 0
-14 -22 -12 3 4 41 14 32 14 33 19 9 4 -22 4 -22 6 5 0 17 7 42 15 57 9 17 10
30 4 36 -5 5 -11 25 -12 44 -3 40 -13 61 -27 53 -5 -4 -9 3 -9 14 0 12 7 21
16 21 8 0 13 -4 10 -9z m313 -131 c0 -86 -5 -143 -12 -147 -6 -3 -7 -1 -3 5 4
7 3 12 -2 12 -6 0 -10 53 -9 128 l1 127 6 -120 6 -120 2 128 c1 70 4 127 7
127 3 0 5 -63 4 -140z m-5714 120 c3 -5 1 -10 -4 -10 -6 0 -11 5 -11 10 0 6 2
10 4 10 3 0 8 -4 11 -10z m945 0 c0 -5 -8 -10 -17 -10 -15 0 -16 2 -3 10 19
12 20 12 20 0z m1243 -224 c7 4 2 -3 -10 -15 -28 -26 -37 -27 -23 -2 5 11 11
73 12 138 l2 118 3 -123 c3 -93 7 -121 16 -116z m1237 230 c0 -3 -4 -8 -10
-11 -5 -3 -10 -1 -10 4 0 6 5 11 10 11 6 0 10 -2 10 -4z m-3203 -28 c-3 -8 -6
-5 -6 6 -1 11 2 17 5 13 3 -3 4 -12 1 -19z m936 -247 c-2 -2 -3 6 -3 18 0 12
-3 20 -7 18 -5 -3 -6 50 -3 116 l4 122 6 -135 c4 -74 5 -137 3 -139z m512 230
c-6 -5 -25 10 -25 20 0 5 6 4 14 -3 8 -7 12 -15 11 -17z m108 22 c-7 -2 -19
-2 -25 0 -7 3 -2 5 12 5 14 0 19 -2 13 -5z m1917 -48 c-8 -11 5 -55 16 -55 3
0 4 10 1 21 -4 16 -3 19 5 11 6 -6 11 -48 12 -94 1 -46 0 -74 -2 -64 -3 13 -6
15 -12 7 -4 -7 -5 10 -2 38 3 36 0 58 -11 75 -19 29 -28 71 -20 93 6 14 7 14
14 -3 3 -10 3 -23 -1 -29z m-3053 3 c-3 -7 -5 -2 -5 12 0 14 2 19 5 13 2 -7 2
-19 0 -25z m717 -8 l7 -25 -15 25 c-17 28 -21 50 -7 35 5 -6 12 -21 15 -35z
m101 -40 c0 -22 -4 -40 -10 -41 -5 0 -16 -10 -23 -22 -10 -16 -12 -17 -8 -4 3
10 6 23 6 29 0 6 7 8 15 4 13 -4 14 4 10 52 -3 31 -2 49 2 40 5 -10 8 -35 8
-58z m325 66 c0 -11 -19 -15 -25 -6 -3 5 1 10 9 10 9 0 16 -2 16 -4z m-1553
-28 c-3 -8 -6 -5 -6 6 -1 11 2 17 5 13 3 -3 4 -12 1 -19z m94 -9 c-5 -13 -10
-19 -10 -12 -1 15 10 45 15 40 3 -2 0 -15 -5 -28z m1074 -7 c3 -19 4 -37 1
-40 -3 -3 -6 5 -6 17 0 12 -4 19 -10 16 -5 -3 -10 -2 -10 4 0 5 -2 16 -5 24
-4 8 0 14 9 14 9 0 17 -14 21 -35z m2368 13 c-7 -21 -13 -19 -13 6 0 11 4 18
10 14 5 -3 7 -12 3 -20z m-4413 0 c0 -8 -2 -15 -4 -15 -2 0 -6 7 -10 15 -3 8
-1 15 4 15 6 0 10 -7 10 -15z m4121 -7 c-4 -12 -14 -24 -22 -26 -11 -3 -11 -1
1 7 11 8 11 11 2 11 -10 0 -10 3 0 15 19 21 28 18 19 -7z m1619 -37 c-6 -23
-15 -39 -20 -36 -6 4 -10 11 -10 16 0 6 5 7 10 4 6 -3 10 3 10 14 0 23 11 54
17 47 2 -2 -1 -23 -7 -45z m-1340 6 c0 -5 -4 -5 -10 -2 -5 3 -10 14 -10 23 0
15 2 15 10 2 5 -8 10 -19 10 -23z m-3820 4 c0 -29 -15 -33 -18 -5 -1 13 3 24
8 24 6 0 10 -9 10 -19z m717 -28 c-3 -10 -5 -2 -5 17 0 19 2 27 5 18 2 -10 2
-26 0 -35z m5853 35 c0 -5 3 -7 8 -7 43 7 74 -38 52 -75 -9 -14 -9 -21 -1 -26
17 -10 2 -40 -20 -40 -10 0 -19 -4 -19 -10 0 -5 -9 -10 -21 -10 -11 0 -17 4
-14 10 4 6 -4 9 -17 7 -16 -1 -23 3 -24 18 -1 11 -5 28 -9 38 -5 12 -2 17 9
17 9 0 16 -8 16 -18 0 -9 8 -22 19 -29 25 -16 65 10 56 37 -3 11 1 20 11 24
13 5 14 9 4 21 -7 8 -17 15 -23 15 -6 0 -2 -7 9 -16 20 -16 15 -16 -26 3 -14
6 -37 14 -51 17 -38 8 -33 33 8 32 18 -1 33 -4 33 -8z m-7090 -18 c0 -13 -23
-18 -45 -9 -18 8 -17 8 5 6 16 -1 24 3 22 11 -1 8 2 11 8 7 5 -3 10 -10 10
-15z m590 10 c0 -5 -2 -10 -4 -10 -3 0 -8 5 -11 10 -3 6 -1 10 4 10 6 0 11 -4
11 -10z m927 -12 c-3 -8 -6 -5 -6 6 -1 11 2 17 5 13 3 -3 4 -12 1 -19z m410
-10 c-3 -7 -5 -2 -5 12 0 14 2 19 5 13 2 -7 2 -19 0 -25z m390 0 c-3 -8 -6 -5
-6 6 -1 11 2 17 5 13 3 -3 4 -12 1 -19z m49 4 c1 -7 0 -8 -3 -2 -2 5 -9 8 -14
4 -5 -3 -9 0 -9 6 0 15 23 7 26 -8z m1691 -10 c-10 -10 -17 -25 -18 -33 0 -8
-4 -4 -9 9 -5 12 -15 22 -22 22 -9 0 -9 -3 0 -12 7 -7 12 -21 12 -32 -1 -16
-5 -12 -15 13 -20 44 -19 46 9 47 18 1 23 -2 20 -15 -3 -9 2 -7 12 7 9 12 19
20 22 17 3 -3 -2 -13 -11 -23z m1237 -14 c8 -37 2 -88 -10 -88 -11 0 -24 51
-24 93 0 25 29 21 34 -5z m-5354 2 c0 -5 -4 -10 -10 -10 -5 0 -10 5 -10 10 0
6 5 10 10 10 6 0 10 -4 10 -10z m2000 -47 c-4 -56 -5 -57 -8 -14 -3 38 2 71
10 71 2 0 1 -26 -2 -57z m415 14 c0 -20 -5 -39 -11 -41 -8 -3 -9 6 -3 32 5 25
4 39 -4 45 -8 6 -8 7 3 4 10 -2 15 -16 15 -40z m-99 11 c-3 -13 -6 -30 -7 -38
0 -10 -3 -8 -8 5 -5 11 -5 25 0 31 5 6 6 14 2 17 -3 4 -1 7 6 7 9 0 11 -8 7
-22z m-2016 2 c0 -5 -2 -10 -4 -10 -3 0 -8 5 -11 10 -3 6 -1 10 4 10 6 0 11
-4 11 -10z m641 -23 c-10 -9 -11 -8 -5 6 3 10 9 15 12 12 3 -3 0 -11 -7 -18z
m250 0 c-10 -9 -11 -8 -5 6 3 10 9 15 12 12 3 -3 0 -11 -7 -18z m90 -4 c-12
-20 -14 -14 -5 12 4 9 9 14 11 11 3 -2 0 -13 -6 -23z m48 4 c0 -9 -2 -8 -6 1
-2 6 -10 9 -15 6 -7 -4 -8 -2 -4 5 9 13 26 5 25 -12z m791 -6 c0 -16 -7 -34
-15 -41 -19 -16 -28 -9 -19 14 5 14 9 15 15 4 6 -8 6 0 3 20 -4 21 -3 32 5 32
6 0 11 -13 11 -29z m995 19 c3 -5 1 -10 -4 -10 -6 0 -11 5 -11 10 0 6 2 10 4
10 3 0 8 -4 11 -10z m100 -10 c20 -65 -69 -105 -120 -54 -18 19 -20 43 -2 40
23 -3 37 -17 38 -39 1 -17 2 -18 6 -4 2 9 8 17 13 17 5 0 11 -8 13 -17 4 -14
5 -12 6 5 1 22 21 32 21 10 0 -6 3 -8 7 -4 8 8 12 45 4 44 -16 -1 -22 3 -16
12 10 16 23 12 30 -10z m-1965 -2 c0 -6 -3 -8 -7 -5 -3 4 -12 2 -20 -4 -13
-11 -19 2 -6 14 11 11 33 8 33 -5z m4588 -9 c-7 -5 -8 -9 -3 -9 6 0 12 -11 13
-25 1 -18 -3 -25 -16 -25 -13 0 -14 2 -4 9 11 7 11 9 -1 14 -8 3 -13 16 -12
29 3 29 2 28 21 21 13 -5 13 -7 2 -14z m-5825 -31 c-2 -5 1 -8 8 -8 7 0 9 -3
6 -7 -4 -3 -16 3 -27 14 -10 12 -16 23 -13 26 7 8 32 -16 26 -25z m4105 -9
c-1 -16 -5 -29 -9 -29 -12 0 -20 32 -14 52 9 27 26 11 23 -23z m1619 35 c-3
-3 -12 -4 -19 -1 -8 3 -5 6 6 6 11 1 17 -2 13 -5z m-4783 -20 c3 -8 2 -12 -4
-9 -6 3 -10 10 -10 16 0 14 7 11 14 -7z m2551 -5 c-4 -5 1 -9 9 -9 9 0 16 -7
16 -15 0 -8 -8 -15 -17 -15 -15 0 -16 2 -3 10 13 8 12 10 -2 10 -11 0 -18 8
-18 21 0 11 5 17 10 14 6 -4 8 -11 5 -16z m-2575 -4 c0 -8 -4 -15 -10 -15 -5
0 -7 7 -4 15 4 8 8 15 10 15 2 0 4 -7 4 -15z m395 5 c3 -5 -1 -10 -10 -10 -9
0 -13 5 -10 10 3 6 8 10 10 10 2 0 7 -4 10 -10z m1040 -6 c10 4 14 2 9 -6 -5
-8 2 -9 22 -4 23 5 25 4 12 -4 -29 -18 -88 -3 -88 22 0 7 5 6 15 -2 8 -7 22
-10 30 -6z m1369 4 c-3 -4 2 -8 10 -8 8 0 18 -5 22 -12 5 -8 -2 -9 -26 -4 -19
3 -35 8 -38 10 -7 8 7 23 22 23 8 0 13 -4 10 -9z m-3354 -8 c0 -5 -8 -10 -17
-10 -15 0 -16 2 -3 10 19 12 20 12 20 0z m197 -12 c-3 -8 -6 -5 -6 6 -1 11 2
17 5 13 3 -3 4 -12 1 -19z m610 -3 c-15 -16 -22 -11 -13 10 3 9 10 13 16 10 6
-4 5 -11 -3 -20z m380 -7 c-3 -7 -5 -2 -5 12 0 14 2 19 5 13 2 -7 2 -19 0 -25z
m743 17 c11 -13 10 -14 -4 -9 -9 3 -16 10 -16 15 0 13 6 11 20 -6z m610 -7 c0
-9 -17 -13 -50 -13 -64 0 -65 13 -2 18 26 2 48 4 50 5 1 1 2 -4 2 -10z m2792
-3 c0 -5 -5 -11 -11 -13 -6 -2 -11 4 -11 13 0 9 5 15 11 13 6 -2 11 -8 11 -13z
m-5707 -5 c3 -6 -1 -7 -9 -4 -18 7 -21 14 -7 14 6 0 13 -4 16 -10z m5352 4
c-3 -3 -12 -4 -19 -1 -8 3 -5 6 6 6 11 1 17 -2 13 -5z m2918 -314 c3 -5 1 -10
-4 -10 -6 0 -11 5 -11 10 0 6 2 10 4 10 3 0 8 -4 11 -10z"/>
<path d="M7202 10297 c-15 -18 -21 -1415 -7 -1440 23 -37 47 413 61 1097 6
282 4 340 -7 347 -20 12 -35 11 -47 -4z"/>
<path d="M7117 10293 c-11 -17 -20 -911 -12 -1108 12 -289 21 -198 34 340 18
782 18 769 -1 773 -9 2 -18 -1 -21 -5z"/>
<path d="M7297 10294 c-10 -10 -8 -1274 1 -1274 15 0 35 425 48 978 l7 302
-25 0 c-13 0 -28 -3 -31 -6z"/>
<path d="M7394 10289 c-10 -17 -7 -1315 3 -1334 9 -15 11 -12 16 14 4 17 11
183 17 368 6 186 15 424 20 528 5 105 10 245 10 313 l0 122 -29 0 c-17 0 -33
-5 -37 -11z"/>
<path d="M7485 10278 c-8 -38 -11 -1256 -2 -1264 14 -14 18 5 32 142 15 150
42 1102 32 1128 -10 25 -56 20 -62 -6z"/>
<path d="M7591 10287 c-14 -17 -16 -976 -2 -990 16 -16 30 2 35 46 9 71 28
915 21 937 -7 23 -37 27 -54 7z"/>
<path d="M8388 9598 c-43 -15 -38 -52 11 -83 22 -13 49 -34 60 -46 25 -28 46
-19 55 21 10 55 7 76 -17 98 -25 24 -64 27 -109 10z"/>
<path d="M8845 9544 c-10 -48 -6 -414 4 -432 4 -8 11 89 14 214 6 220 -1 302
-18 218z"/>
<path d="M8697 9531 c-3 -13 -3 -98 1 -189 7 -181 13 -167 26 53 5 95 4 124
-7 139 -13 18 -14 18 -20 -3z"/>
<path d="M8786 9518 c-7 -46 -3 -185 7 -194 4 -4 7 45 7 109 0 117 -5 145 -14
85z"/>
<path d="M7910 9500 c0 -5 7 -10 16 -10 8 0 12 5 9 10 -3 6 -10 10 -16 10 -5
0 -9 -4 -9 -10z"/>
<path d="M7903 9404 c-6 -17 15 -37 29 -28 13 9 9 32 -7 38 -9 3 -18 -1 -22
-10z"/>
<path d="M8045 9390 c3 -5 8 -10 11 -10 2 0 4 5 4 10 0 6 -5 10 -11 10 -5 0
-7 -4 -4 -10z"/>
<path d="M8458 9341 c-11 -4 -14 -11 -9 -19 10 -16 42 -13 48 4 5 15 -17 23
-39 15z"/>
<path d="M8443 9269 c-48 -14 -47 -25 3 -39 52 -15 77 -3 58 27 -13 21 -22 23
-61 12z"/>
<path d="M8427 9163 c-13 -12 15 -33 44 -33 22 0 29 5 29 20 0 16 -7 20 -33
20 -19 0 -37 -3 -40 -7z"/>
<path d="M7892 9083 c2 -10 14 -19 26 -21 19 -3 23 1 20 15 -2 10 -14 19 -26
21 -19 3 -23 -1 -20 -15z"/>
<path d="M8040 9080 c0 -5 5 -10 11 -10 5 0 7 5 4 10 -3 6 -8 10 -11 10 -2 0
-4 -4 -4 -10z"/>
<path d="M8160 9080 c0 -5 7 -10 16 -10 8 0 12 5 9 10 -3 6 -10 10 -16 10 -5
0 -9 -4 -9 -10z"/>
<path d="M8430 9080 c-20 -13 -2 -30 36 -33 23 -2 30 2 32 21 3 18 -1 22 -25
22 -15 0 -35 -5 -43 -10z"/>
<path d="M8782 9060 c0 -14 2 -19 5 -12 2 6 2 18 0 25 -3 6 -5 1 -5 -13z"/>
<path d="M8990 9004 c0 -8 5 -12 10 -9 6 3 10 10 10 16 0 5 -4 9 -10 9 -5 0
-10 -7 -10 -16z"/>
<path d="M8430 8993 c-8 -2 -21 -7 -29 -9 -22 -7 0 -24 42 -34 26 -5 41 -4 54
6 17 13 17 15 -1 29 -20 15 -39 18 -66 8z"/>
<path d="M7892 8968 c5 -15 37 -18 41 -3 1 6 -9 12 -22 13 -16 3 -22 -1 -19
-10z"/>
<path d="M8020 8965 c0 -8 9 -15 20 -15 11 0 20 7 20 15 0 8 -9 15 -20 15 -11
0 -20 -7 -20 -15z"/>
<path d="M8145 8970 c-8 -12 20 -24 35 -15 6 3 8 11 5 16 -8 12 -32 12 -40 -1z"/>
<path d="M8696 8924 c-10 -26 -7 -104 4 -104 6 0 10 27 10 60 0 62 -3 72 -14
44z"/>
<path d="M8405 8900 c-18 -7 -16 -10 18 -25 48 -20 71 -16 75 13 3 20 -1 22
-35 21 -21 0 -47 -4 -58 -9z"/>
<path d="M7884 8879 c-3 -6 1 -18 10 -27 15 -15 17 -15 32 0 19 19 11 38 -16
38 -10 0 -22 -5 -26 -11z"/>
<path d="M8142 8863 c2 -10 12 -18 23 -18 11 0 21 8 23 18 3 13 -3 17 -23 17
-20 0 -26 -4 -23 -17z"/>
<path d="M8418 8813 c-16 -2 -28 -8 -28 -13 0 -16 40 -31 73 -28 24 2 32 8 32
23 0 21 -23 27 -77 18z"/>
<path d="M7897 8773 c-13 -12 -7 -33 8 -33 8 0 15 9 15 20 0 20 -11 26 -23 13z"/>
<path d="M8397 8733 c-40 -6 -28 -25 23 -40 52 -15 80 -9 80 17 0 28 -28 34
-103 23z"/>
<path d="M8977 8714 c-8 -8 1 -24 14 -24 5 0 9 7 9 15 0 15 -12 20 -23 9z"/>
<path d="M7880 8670 c-20 -12 -2 -44 27 -48 28 -4 40 28 17 45 -21 15 -24 16
-44 3z"/>
<path d="M8015 8660 c-4 -7 -3 -16 3 -22 14 -14 45 -2 40 15 -6 16 -34 21 -43
7z"/>
<path d="M8143 8648 c2 -7 10 -13 17 -13 7 0 15 6 18 13 2 7 -5 12 -18 12 -13
0 -20 -5 -17 -12z"/>
<path d="M8397 8631 c-26 -10 -5 -26 44 -35 38 -7 68 12 54 34 -7 11 -70 12
-98 1z"/>
<path d="M8980 8590 c0 -5 5 -10 10 -10 6 0 10 5 10 10 0 6 -4 10 -10 10 -5 0
-10 -4 -10 -10z"/>
<path d="M8013 8573 c-20 -7 -15 -31 8 -44 25 -13 43 0 37 27 -3 19 -23 27
-45 17z"/>
<path d="M8140 8565 c-15 -18 -5 -35 21 -35 12 0 19 7 19 19 0 24 -25 34 -40
16z"/>
<path d="M8405 8553 c-49 -12 -35 -34 31 -46 38 -7 68 11 58 36 -6 17 -43 21
-89 10z"/>
<path d="M8974 8509 c-10 -17 13 -36 27 -22 12 12 4 33 -11 33 -5 0 -12 -5
-16 -11z"/>
<path d="M7881 8461 c-21 -14 -5 -43 21 -39 15 2 23 10 23 23 0 22 -22 30 -44
16z"/>
<path d="M8015 8450 c-4 -7 -3 -16 3 -22 14 -14 45 -2 40 15 -6 16 -34 21 -43
7z"/>
<path d="M8375 8450 c-8 -13 37 -30 81 -30 27 0 34 4 34 20 0 18 -7 20 -54 20
-30 0 -58 -5 -61 -10z"/>
<path d="M8140 8440 c0 -5 9 -10 21 -10 11 0 17 5 14 10 -3 6 -13 10 -21 10
-8 0 -14 -4 -14 -10z"/>
<path d="M8980 8390 c0 -5 5 -10 10 -10 6 0 10 5 10 10 0 6 -4 10 -10 10 -5 0
-10 -4 -10 -10z"/>
<path d="M8395 8373 c-45 -9 -50 -13 -34 -28 17 -17 115 -23 130 -8 29 29 -26
49 -96 36z"/>
<path d="M7883 8363 c-19 -7 -16 -31 5 -42 20 -11 42 2 42 25 0 9 -25 27 -33
23 -1 0 -8 -3 -14 -6z"/>
<path d="M8002 8338 c4 -31 53 -34 53 -3 0 15 -8 21 -28 23 -25 3 -28 0 -25
-20z"/>
<path d="M8124 8345 c-8 -21 4 -35 32 -35 19 0 24 5 24 25 0 20 -5 25 -25 25
-14 0 -28 -7 -31 -15z"/>
<path d="M8967 8296 c-6 -16 16 -40 26 -29 4 3 7 15 7 25 0 21 -25 24 -33 4z"/>
<path d="M8370 8270 c0 -9 62 -30 91 -30 17 0 32 24 22 34 -10 10 -113 7 -113
-4z"/>
<path d="M7872 8238 c3 -24 34 -36 49 -21 16 16 -2 43 -28 43 -20 0 -24 -4
-21 -22z"/>
<path d="M8134 8239 c-7 -12 15 -31 31 -26 6 2 11 11 13 20 4 19 -32 24 -44 6z"/>
<path d="M8964 8199 c-8 -14 18 -31 30 -19 9 9 0 30 -14 30 -5 0 -12 -5 -16
-11z"/>
<path d="M8375 8191 c-18 -7 -17 -9 13 -25 45 -23 97 -18 97 9 0 17 -7 20 -45
22 -25 1 -54 -2 -65 -6z"/>
<path d="M7872 8148 c-18 -18 -15 -36 9 -48 15 -9 24 -8 35 1 20 16 18 36 -5
49 -24 13 -24 13 -39 -2z"/>
<path d="M8125 8136 c-24 -17 -13 -34 25 -38 21 -3 25 1 25 22 0 29 -22 37
-50 16z"/>
<path d="M8383 8103 c-49 -6 -40 -19 24 -32 60 -12 80 -5 70 23 -6 16 -24 17
-94 9z"/>
<path d="M8965 8091 c-7 -12 12 -24 25 -16 11 7 4 25 -10 25 -5 0 -11 -4 -15
-9z"/>
<path d="M7880 8052 c-35 -12 -38 -39 -5 -54 42 -19 78 29 38 50 -10 5 -25 7
-33 4z"/>
<path d="M7991 8036 c-9 -11 -8 -18 5 -30 23 -24 48 -16 52 17 3 23 0 27 -21
27 -14 0 -30 -6 -36 -14z"/>
<path d="M8114 8036 c-9 -22 15 -48 40 -44 15 2 21 10 21 28 0 20 -6 26 -28
28 -18 2 -29 -2 -33 -12z"/>
<path d="M8370 8010 c-25 -7 -24 -8 12 -24 65 -28 114 -18 101 22 -5 13 -72
15 -113 2z"/>
<path d="M8967 8004 c-14 -15 -6 -34 14 -34 14 0 19 5 17 17 -3 18 -20 27 -31
17z"/>
<path d="M7867 7934 c-3 -3 -3 -12 0 -20 7 -18 53 -18 53 0 0 19 -39 34 -53
20z"/>
<path d="M8000 7916 c0 -19 32 -30 42 -14 13 21 9 28 -17 28 -15 0 -25 -6 -25
-14z"/>
<path d="M8127 7924 c-10 -11 3 -24 24 -24 10 0 19 7 19 15 0 15 -31 21 -43 9z"/>
<path d="M8395 7921 c-29 -6 -29 -7 18 -20 37 -11 51 -11 60 -2 9 9 8 14 -3
21 -17 11 -30 11 -75 1z"/>
<path d="M8965 7891 c-7 -12 12 -24 25 -16 11 7 4 25 -10 25 -5 0 -11 -4 -15
-9z"/>
<path d="M6240 9990 c0 -5 5 -10 10 -10 6 0 10 5 10 10 0 6 -4 10 -10 10 -5 0
-10 -4 -10 -10z"/>
<path d="M6582 9988 c6 -18 28 -21 28 -4 0 9 -7 16 -16 16 -9 0 -14 -5 -12
-12z"/>
<path d="M6460 9860 c0 -5 5 -10 10 -10 6 0 10 5 10 10 0 6 -4 10 -10 10 -5 0
-10 -4 -10 -10z"/>
<path d="M6580 9855 c0 -8 7 -15 15 -15 8 0 15 7 15 15 0 8 -7 15 -15 15 -8 0
-15 -7 -15 -15z"/>
<path d="M5835 9790 c-8 -13 3 -30 20 -30 14 0 27 24 18 34 -10 9 -31 7 -38
-4z"/>
<path d="M6224 9749 c-9 -15 11 -33 30 -26 9 4 13 13 10 22 -7 17 -30 20 -40
4z"/>
<path d="M6340 9745 c-10 -12 -9 -16 5 -21 23 -9 40 10 22 25 -11 9 -17 8 -27
-4z"/>
<path d="M6450 9736 c0 -8 4 -17 9 -20 11 -7 33 18 24 27 -12 12 -33 7 -33 -7z"/>
<path d="M6572 9733 c2 -10 10 -18 18 -18 8 0 16 8 18 18 2 12 -3 17 -18 17
-15 0 -20 -5 -18 -17z"/>
<path d="M6680 9735 c0 -8 9 -15 20 -15 11 0 20 7 20 15 0 8 -9 15 -20 15 -11
0 -20 -7 -20 -15z"/>
<path d="M5992 9623 c2 -10 10 -18 18 -18 8 0 16 8 18 18 2 12 -3 17 -18 17
-15 0 -20 -5 -18 -17z"/>
<path d="M6105 9631 c-8 -15 3 -31 21 -31 9 0 14 7 12 17 -4 20 -24 28 -33 14z"/>
<path d="M6217 9626 c-8 -20 20 -43 35 -28 14 14 3 42 -16 42 -7 0 -16 -6 -19
-14z"/>
<path d="M6564 9625 c-9 -22 22 -53 37 -38 15 15 7 47 -14 51 -9 2 -20 -4 -23
-13z"/>
<path d="M6330 9621 c0 -13 26 -32 33 -24 14 13 6 33 -13 33 -11 0 -20 -4 -20
-9z"/>
<path d="M6450 9610 c0 -15 5 -20 18 -18 9 2 17 10 17 18 0 8 -8 16 -17 18
-13 2 -18 -3 -18 -18z"/>
<path d="M5993 9503 c-7 -2 -9 -11 -6 -19 7 -18 43 -18 43 0 0 16 -19 25 -37
19z"/>
<path d="M6100 9484 c0 -9 7 -14 17 -12 25 5 28 28 4 28 -12 0 -21 -6 -21 -16z"/>
<path d="M6212 9488 c7 -20 48 -23 48 -4 0 11 -9 16 -26 16 -16 0 -24 -5 -22
-12z"/>
<path d="M6322 9483 c2 -12 12 -18 28 -18 36 0 33 29 -3 33 -23 3 -28 0 -25
-15z"/>
<path d="M6445 9491 c-8 -15 3 -31 21 -31 9 0 14 7 12 17 -4 20 -24 28 -33 14z"/>
<path d="M6571 9490 c-16 -9 -6 -30 15 -30 15 0 20 25 6 34 -4 2 -14 1 -21 -4z"/>
<path d="M6682 9478 c5 -15 28 -18 29 -3 0 6 -7 12 -17 13 -10 3 -15 -1 -12
-10z"/>
<path d="M5980 9361 c0 -11 6 -21 13 -24 20 -7 37 4 37 24 0 14 -7 19 -25 19
-18 0 -25 -5 -25 -19z"/>
<path d="M6207 9366 c-7 -19 18 -40 39 -32 8 3 14 14 12 23 -4 22 -43 29 -51
9z"/>
<path d="M6444 9365 c-3 -8 -3 -19 1 -25 11 -17 35 -11 35 9 0 23 -29 36 -36
16z"/>
<path d="M6567 9373 c-12 -11 -8 -41 7 -46 21 -8 37 13 25 35 -10 19 -21 23
-32 11z"/>
<path d="M6095 9360 c-8 -12 20 -24 35 -15 6 3 8 11 5 16 -8 12 -32 12 -40 -1z"/>
<path d="M6673 9354 c-8 -20 9 -36 30 -28 21 8 22 30 1 38 -22 8 -24 8 -31
-10z"/>
<path d="M5810 9346 c0 -3 7 -12 16 -21 12 -12 19 -13 30 -4 8 6 11 15 8 20
-5 9 -54 13 -54 5z"/>
<path d="M5975 9250 c-8 -13 13 -40 30 -40 15 0 28 27 19 41 -7 12 -41 11 -49
-1z"/>
<path d="M6090 9240 c0 -24 29 -38 40 -20 12 19 1 40 -21 40 -12 0 -19 -7 -19
-20z"/>
<path d="M6206 9251 c-11 -18 6 -42 28 -39 29 4 29 42 -1 46 -11 2 -24 -1 -27
-7z"/>
<path d="M6322 9247 c-9 -10 -8 -18 2 -32 18 -25 48 -13 44 17 -4 27 -30 35
-46 15z"/>
<path d="M6554 9235 c-8 -20 4 -35 27 -35 14 0 19 7 19 25 0 18 -5 25 -20 25
-11 0 -23 -7 -26 -15z"/>
<path d="M6666 9241 c-11 -18 6 -42 28 -39 29 4 29 42 -1 46 -11 2 -24 -1 -27
-7z"/>
<path d="M5976 9131 c-10 -16 5 -41 25 -41 14 0 19 7 19 25 0 18 -5 25 -19 25
-11 0 -22 -4 -25 -9z"/>
<path d="M6093 9124 c-8 -21 13 -42 28 -27 13 13 5 43 -11 43 -6 0 -13 -7 -17
-16z"/>
<path d="M6207 9126 c-8 -20 20 -43 35 -28 14 14 3 42 -16 42 -7 0 -16 -6 -19
-14z"/>
<path d="M6330 9130 c-18 -11 -4 -42 17 -38 10 2 19 10 21 19 4 19 -19 31 -38
19z"/>
<path d="M6437 9125 c-9 -22 3 -46 22 -43 10 2 16 13 16 28 0 28 -29 40 -38
15z"/>
<path d="M6556 9121 c-10 -16 5 -42 23 -39 21 4 21 42 -1 46 -9 2 -19 -1 -22
-7z"/>
<path d="M6672 9108 c5 -34 38 -37 38 -4 0 20 -5 26 -21 26 -15 0 -20 -5 -17
-22z"/>
<path d="M5972 8983 c2 -10 13 -19 26 -21 17 -3 22 2 22 17 0 16 -6 21 -26 21
-19 0 -25 -5 -22 -17z"/>
<path d="M6094 8989 c-10 -17 13 -36 27 -22 12 12 4 33 -11 33 -5 0 -12 -5
-16 -11z"/>
<path d="M6210 8990 c-11 -7 -12 -12 -3 -21 14 -14 46 -4 41 13 -6 16 -20 19
-38 8z"/>
<path d="M6327 8989 c-21 -12 -13 -29 13 -29 24 0 33 15 17 28 -8 7 -18 7 -30
1z"/>
<path d="M6432 8973 c4 -22 43 -25 43 -3 0 8 -11 16 -23 18 -19 3 -23 0 -20
-15z"/>
<path d="M6555 8980 c-4 -7 -3 -16 3 -22 14 -14 45 -2 40 15 -6 16 -34 21 -43
7z"/>
<path d="M6665 8980 c-4 -7 -3 -16 3 -22 14 -14 45 -2 40 15 -6 16 -34 21 -43
7z"/>
<path d="M5805 8930 c-10 -17 20 -44 40 -36 9 3 15 14 13 23 -4 21 -43 30 -53
13z"/>
<path d="M5970 8874 c-11 -12 -10 -18 3 -31 8 -9 23 -13 31 -10 21 8 21 43 0
51 -21 8 -20 8 -34 -10z"/>
<path d="M6087 8874 c-13 -13 -7 -42 10 -48 21 -8 36 6 31 30 -3 19 -29 30
-41 18z"/>
<path d="M6194 8865 c-4 -9 -2 -21 4 -27 16 -16 47 -5 47 17 0 26 -42 34 -51
10z"/>
<path d="M6317 8873 c-13 -12 -7 -41 10 -47 21 -8 48 17 40 38 -6 16 -38 22
-50 9z"/>
<path d="M6434 8865 c-9 -21 3 -45 21 -45 21 0 30 27 15 45 -16 19 -29 19 -36
0z"/>
<path d="M6543 8854 c-3 -8 -1 -20 5 -26 16 -16 47 -5 50 20 3 18 -1 22 -23
22 -14 0 -28 -7 -32 -16z"/>
<path d="M6657 8856 c-7 -19 18 -40 39 -32 8 3 14 14 12 23 -4 22 -43 29 -51
9z"/>
<path d="M6204 8755 c-15 -11 -17 -17 -8 -32 15 -25 48 -23 52 3 4 31 -20 47
-44 29z"/>
<path d="M5964 8745 c-7 -18 12 -45 32 -45 15 0 28 35 19 50 -9 15 -45 12 -51
-5z"/>
<path d="M6311 8746 c-17 -20 -2 -46 25 -46 29 0 41 24 24 45 -16 19 -34 19
-49 1z"/>
<path d="M6432 8748 c-16 -16 -15 -33 4 -48 22 -19 54 12 38 37 -14 22 -27 26
-42 11z"/>
<path d="M6553 8753 c-16 -6 -17 -35 -1 -51 17 -17 26 -15 38 9 9 15 8 24 -1
35 -12 15 -16 16 -36 7z"/>
<path d="M6657 8737 c-3 -9 0 -22 6 -32 17 -22 49 -9 45 19 -4 25 -43 34 -51
13z"/>
<path d="M5955 8630 c-9 -15 22 -60 40 -60 16 0 31 43 20 59 -8 14 -52 14 -60
1z"/>
<path d="M6087 8634 c-13 -14 -7 -52 10 -58 19 -8 34 11 31 39 -3 20 -28 32
-41 19z"/>
<path d="M6197 8633 c-14 -13 -7 -51 10 -57 18 -7 43 16 43 40 0 18 -40 31
-53 17z"/>
<path d="M6313 8633 c-16 -6 -17 -35 -1 -51 19 -19 46 -14 53 8 11 34 -17 58
-52 43z"/>
<path d="M5800 8620 c-12 -7 -12 -12 4 -29 24 -27 43 -27 51 0 10 32 -23 49
-55 29z"/>
<path d="M6420 8613 c0 -11 6 -28 14 -38 12 -17 16 -17 30 -5 26 21 16 54 -16
58 -22 3 -28 -1 -28 -15z"/>
<path d="M6542 8603 c2 -20 9 -29 26 -31 19 -3 22 1 22 27 0 27 -4 31 -26 31
-22 0 -25 -4 -22 -27z"/>
<path d="M6654 8615 c-7 -17 12 -45 31 -45 16 0 26 25 19 45 -8 19 -43 19 -50
0z"/>
<path d="M5793 8513 c-31 -6 -29 -33 4 -57 19 -14 30 -16 42 -9 21 13 27 53 9
64 -14 9 -18 9 -55 2z"/>
<path d="M5959 8494 c-11 -14 -10 -18 6 -30 25 -18 32 -18 44 4 19 35 -24 57
-50 26z"/>
<path d="M6185 8490 c-10 -16 15 -41 39 -38 32 5 28 42 -6 46 -14 2 -29 -2
-33 -8z"/>
<path d="M6300 8476 c0 -28 33 -44 54 -26 23 19 7 50 -25 50 -24 0 -29 -4 -29
-24z"/>
<path d="M6540 8490 c-12 -7 -12 -13 -4 -27 17 -28 49 -23 49 7 0 27 -21 36
-45 20z"/>
<path d="M6650 8470 c0 -25 25 -36 45 -20 20 16 7 40 -21 40 -17 0 -24 -6 -24
-20z"/>
<path d="M5953 8364 c-8 -22 10 -49 33 -49 14 0 20 8 22 33 3 29 1 32 -23 32
-14 0 -28 -7 -32 -16z"/>
<path d="M6083 8373 c-18 -7 -16 -38 2 -53 20 -17 38 -1 33 31 -3 24 -15 31
-35 22z"/>
<path d="M6193 8373 c-20 -7 -15 -51 6 -62 24 -13 44 8 39 41 -3 23 -22 31
-45 21z"/>
<path d="M6306 8367 c-33 -24 9 -84 44 -62 16 10 12 62 -6 69 -20 8 -17 8 -38
-7z"/>
<path d="M6421 8366 c-8 -9 -8 -21 -1 -40 12 -34 46 -35 52 -2 9 45 -25 73
-51 42z"/>
<path d="M6535 8359 c-13 -19 4 -59 25 -59 12 0 22 9 26 24 7 31 -1 46 -26 46
-10 0 -22 -5 -25 -11z"/>
<path d="M6652 8358 c-14 -19 4 -58 27 -58 11 0 21 9 24 22 10 38 -28 64 -51
36z"/>
<path d="M5947 8246 c-9 -23 2 -44 25 -52 26 -8 41 7 36 37 -4 29 -52 40 -61
15z"/>
<path d="M6072 8228 c2 -25 8 -33 23 -33 16 0 20 7 20 30 0 24 -5 31 -23 33
-21 3 -23 0 -20 -30z"/>
<path d="M6184 8246 c-11 -29 0 -51 26 -51 21 0 25 5 25 30 0 24 -5 31 -23 33
-13 2 -24 -3 -28 -12z"/>
<path d="M6297 8253 c-15 -14 -6 -53 14 -64 17 -9 25 -8 36 4 23 23 9 67 -21
67 -12 0 -26 -3 -29 -7z"/>
<path d="M6422 8248 c-26 -26 0 -77 33 -64 20 7 20 62 -1 70 -20 8 -18 8 -32
-6z"/>
<path d="M6526 8234 c-8 -22 11 -54 33 -54 22 0 34 25 26 51 -8 23 -50 25 -59
3z"/>
<path d="M6644 8235 c-15 -38 29 -72 52 -40 9 13 10 23 3 36 -12 23 -47 25
-55 4z"/>
<path d="M5792 8177 c-16 -19 8 -50 34 -45 28 5 26 52 -2 56 -11 2 -26 -3 -32
-11z"/>
<path d="M5950 8106 c0 -24 23 -41 41 -30 5 3 9 16 9 30 0 19 -5 24 -25 24
-20 0 -25 -5 -25 -24z"/>
<path d="M6177 8108 c-7 -26 8 -48 34 -48 20 0 36 40 24 59 -12 20 -52 12 -58
-11z"/>
<path d="M6294 8116 c-11 -28 1 -51 25 -51 32 0 49 28 32 49 -17 20 -50 21
-57 2z"/>
<path d="M6421 8117 c-26 -26 0 -74 33 -61 23 9 21 60 -3 67 -11 2 -24 0 -30
-6z"/>
<path d="M6647 8114 c-23 -23 7 -69 37 -58 25 10 17 58 -9 62 -12 2 -24 0 -28
-4z"/>
<path d="M5783 8090 c-29 -12 -29 -41 0 -68 40 -38 67 -25 67 32 0 24 -17 46
-34 45 -6 0 -21 -4 -33 -9z"/>
<path d="M5950 7995 c-16 -19 2 -45 32 -45 15 0 19 6 16 27 -3 32 -29 41 -48
18z"/>
<path d="M6067 7986 c-7 -19 18 -40 39 -32 8 3 14 14 12 23 -4 22 -43 29 -51
9z"/>
<path d="M6178 7988 c-8 -22 3 -38 27 -38 26 0 39 22 22 39 -15 15 -44 14 -49
-1z"/>
<path d="M6294 7986 c-9 -22 4 -36 32 -36 21 0 25 4 22 23 -4 26 -45 37 -54
13z"/>
<path d="M6413 7984 c-3 -8 2 -23 11 -32 15 -15 17 -15 33 0 13 14 14 20 3 32
-16 20 -39 20 -47 0z"/>
<path d="M6543 7989 c-27 -10 -29 -22 -8 -39 20 -16 45 -6 45 19 0 26 -10 31
-37 20z"/>
<path d="M6652 7991 c-20 -12 -10 -46 14 -49 25 -4 40 24 23 44 -13 16 -19 17
-37 5z"/>
<path d="M5130 9630 c-18 -11 -4 -42 17 -38 10 2 19 10 21 19 4 19 -19 31 -38
19z"/>
<path d="M5293 9633 c-20 -7 -15 -31 7 -43 24 -13 40 -5 40 20 0 14 -23 34
-33 29 -1 0 -8 -3 -14 -6z"/>
<path d="M5462 9608 c4 -27 33 -36 42 -13 8 22 -1 35 -25 35 -15 0 -20 -6 -17
-22z"/>
<path d="M5120 9486 c0 -15 24 -28 34 -19 13 14 5 33 -14 33 -11 0 -20 -6 -20
-14z"/>
<path d="M5110 9355 c0 -16 34 -38 44 -28 3 3 6 15 6 25 0 13 -7 18 -25 18
-15 0 -25 -6 -25 -15z"/>
<path d="M5454 9359 c-10 -17 23 -46 37 -32 7 7 9 19 6 27 -7 18 -33 21 -43 5z"/>
<path d="M5118 9243 c-22 -5 -23 -26 -3 -43 21 -17 47 -5 43 22 -3 23 -13 28
-40 21z"/>
<path d="M5285 9230 c-8 -14 13 -40 32 -40 20 0 12 44 -9 48 -9 2 -19 -2 -23
-8z"/>
<path d="M5443 9224 c-6 -16 19 -44 38 -44 11 0 21 38 14 50 -10 16 -45 12
-52 -6z"/>
<path d="M5098 9114 c-12 -11 4 -42 27 -52 28 -13 35 -7 35 30 0 24 -4 28 -28
28 -16 0 -31 -3 -34 -6z"/>
<path d="M5275 9110 c-9 -15 3 -47 22 -54 22 -9 35 7 31 35 -3 26 -41 39 -53
19z"/>
<path d="M5453 9113 c-18 -7 -16 -38 2 -53 23 -19 47 -4 43 27 -3 27 -20 37
-45 26z"/>
<path d="M5095 8980 c-10 -17 5 -49 25 -55 28 -9 40 2 40 36 0 25 -4 29 -29
29 -17 0 -33 -5 -36 -10z"/>
<path d="M5271 8977 c-9 -11 -7 -19 7 -37 25 -31 55 -21 50 17 -3 32 -37 43
-57 20z"/>
<path d="M5108 8853 c-28 -7 -29 -32 -2 -50 23 -15 26 -15 42 1 27 26 0 60
-40 49z"/>
<path d="M5264 8835 c-9 -22 9 -37 37 -33 16 2 24 10 24 23 0 26 -52 35 -61
10z"/>
<path d="M5440 8835 c-10 -12 -10 -18 0 -30 17 -21 54 -15 58 9 7 32 -36 48
-58 21z"/>
<path d="M5082 8703 c4 -33 44 -59 66 -41 7 6 12 23 10 37 -3 22 -9 26 -41 29
-37 3 -38 2 -35 -25z"/>
<path d="M5425 8710 c-10 -16 23 -60 45 -60 21 0 38 40 25 59 -8 14 -62 14
-70 1z"/>
<path d="M5085 8594 c-18 -18 -12 -52 13 -71 29 -24 57 -12 67 28 12 48 -44
78 -80 43z"/>
<path d="M5257 8593 c-21 -21 11 -73 45 -73 16 0 30 44 21 67 -5 13 -54 18
-66 6z"/>
<path d="M5431 8586 c-14 -17 3 -62 28 -71 17 -7 41 19 41 45 0 36 -47 53 -69
26z"/>
<path d="M5256 8465 c-21 -21 -20 -31 5 -56 32 -32 54 -21 54 26 0 33 -4 41
-21 43 -12 2 -29 -4 -38 -13z"/>
<path d="M5425 8460 c-11 -17 3 -58 23 -69 26 -14 44 1 45 40 2 31 -1 34 -30
37 -17 2 -34 -2 -38 -8z"/>
<path d="M5088 8329 c-25 -14 -22 -38 6 -51 33 -14 56 -4 56 26 0 33 -29 45
-62 25z"/>
<path d="M5256 8321 c-10 -15 4 -40 26 -47 24 -7 41 7 36 32 -3 21 -52 32 -62
15z"/>
<path d="M5443 8323 c-20 -7 -15 -41 7 -53 26 -14 40 -5 40 25 0 17 -21 40
-33 34 -1 0 -8 -3 -14 -6z"/>
<path d="M5066 8192 c-15 -46 28 -75 69 -48 19 13 23 21 16 39 -11 30 -76 38
-85 9z"/>
<path d="M5252 8201 c-20 -12 -10 -44 18 -58 29 -15 50 -2 50 32 0 31 -38 45
-68 26z"/>
<path d="M5426 8197 c-13 -10 -16 -20 -12 -35 8 -23 47 -39 65 -27 13 8 15 65
2 65 -5 0 -15 2 -23 5 -7 3 -22 -1 -32 -8z"/>
<path d="M5072 8078 c-16 -16 -15 -39 4 -66 28 -40 84 -18 84 34 0 36 -62 58
-88 32z"/>
<path d="M5247 8073 c-21 -21 11 -73 45 -73 17 0 34 52 23 70 -7 11 -58 14
-68 3z"/>
<path d="M4270 10014 c-16 -5 -15 39 -19 -869 -1 -214 -1 -394 0 -400 1 -5 1
-37 0 -70 -1 -40 1 -55 8 -45 10 16 15 117 31 580 9 269 22 550 35 722 4 59 3
69 -14 78 -11 5 -21 9 -23 9 -2 -1 -10 -3 -18 -5z"/>
<path d="M4422 10002 c-10 -7 -12 -103 -12 -458 1 -247 1 -473 0 -502 -1 -38
2 -52 10 -47 7 4 10 29 9 59 -1 29 0 56 3 62 3 5 6 67 7 138 1 71 3 132 5 135
5 8 15 198 22 416 3 93 7 172 10 177 2 4 -4 12 -15 17 -23 13 -23 13 -39 3z"/>
<path d="M4569 9755 c-10 -194 -4 -323 12 -225 10 60 9 219 -1 250 -7 21 -8
16 -11 -25z"/>
<path d="M4080 9600 c0 -5 7 -10 15 -10 8 0 15 5 15 10 0 6 -7 10 -15 10 -8 0
-15 -4 -15 -10z"/>
<path d="M4075 9510 c-3 -5 3 -10 15 -10 12 0 18 5 15 10 -3 6 -10 10 -15 10
-5 0 -12 -4 -15 -10z"/>
<path d="M4060 9425 c0 -9 7 -18 15 -21 23 -9 45 3 39 21 -8 20 -54 20 -54 0z"/>
<path d="M4056 9345 c-6 -16 22 -35 42 -28 6 3 12 13 12 24 0 23 -45 27 -54 4z"/>
<path d="M4346 9263 c-11 -11 -6 -23 9 -23 8 0 15 4 15 9 0 13 -16 22 -24 14z"/>
<path d="M4050 9245 c0 -17 29 -34 48 -28 6 3 12 13 12 24 0 14 -7 19 -30 19
-20 0 -30 -5 -30 -15z"/>
<path d="M4631 9177 c-20 -20 -10 -77 14 -77 15 0 25 22 25 55 0 26 -22 39
-39 22z"/>
<path d="M4706 9175 c-20 -20 -20 -19 0 -57 16 -30 17 -31 30 -13 30 41 4 103
-30 70z"/>
<path d="M4057 9174 c-17 -18 -6 -35 21 -32 16 2 27 9 27 18 0 16 -36 26 -48
14z"/>
<path d="M4340 9130 c0 -5 7 -10 15 -10 8 0 15 5 15 10 0 6 -7 10 -15 10 -8 0
-15 -4 -15 -10z"/>
<path d="M4470 9125 c0 -8 9 -15 20 -15 11 0 20 7 20 15 0 8 -9 15 -20 15 -11
0 -20 -7 -20 -15z"/>
<path d="M4040 9067 c0 -20 26 -39 47 -35 10 2 18 12 18 23 0 15 -8 21 -32 23
-24 2 -33 -1 -33 -11z"/>
<path d="M4041 8986 c-11 -13 -9 -17 12 -27 32 -14 60 -5 55 18 -4 23 -51 29
-67 9z"/>
<path d="M4401 8809 c0 -72 -3 -135 -6 -140 -4 -5 -1 -17 4 -26 13 -22 14 -16
16 67 1 36 6 102 10 148 7 71 6 82 -8 82 -13 0 -15 -20 -16 -131z"/>
<path d="M4614 8915 c-10 -42 4 -95 26 -95 14 0 21 10 26 38 l7 37 12 -35 c23
-69 61 -40 53 40 -4 41 -20 48 -46 20 l-19 -21 -6 21 c-8 30 -45 26 -53 -5z"/>
<path d="M4035 8891 c-8 -14 25 -43 42 -37 8 3 17 6 19 6 2 0 4 9 4 20 0 15
-7 20 -29 20 -17 0 -32 -4 -36 -9z"/>
<path d="M4330 8870 c0 -13 5 -20 13 -17 6 2 12 10 12 17 0 7 -6 15 -12 18 -8
2 -13 -5 -13 -18z"/>
<path d="M4464 8875 c-4 -9 -2 -21 4 -27 15 -15 44 -1 40 19 -4 23 -36 29 -44
8z"/>
<path d="M4195 8870 c-3 -5 1 -10 9 -10 9 0 16 5 16 10 0 6 -4 10 -9 10 -6 0
-13 -4 -16 -10z"/>
<path d="M4042 8819 c-29 -11 -24 -31 11 -43 21 -8 31 -6 43 6 14 14 14 17 -1
32 -19 18 -21 18 -53 5z"/>
<path d="M4186 8761 c-3 -5 1 -14 8 -20 16 -13 32 2 21 19 -8 12 -22 13 -29 1z"/>
<path d="M4323 8754 c-8 -21 13 -42 28 -27 13 13 5 43 -11 43 -6 0 -13 -7 -17
-16z"/>
<path d="M4455 8760 c-11 -17 6 -50 25 -50 19 0 36 33 25 50 -3 5 -15 10 -25
10 -10 0 -22 -5 -25 -10z"/>
<path d="M4020 8705 c0 -16 42 -30 65 -21 8 3 15 12 15 21 0 11 -11 15 -40 15
-29 0 -40 -4 -40 -15z"/>
<path d="M4617 8674 c-10 -10 -8 -106 2 -123 7 -11 12 -8 26 12 31 48 7 145
-28 111z"/>
<path d="M4695 8666 c-14 -10 -17 -22 -12 -55 3 -23 11 -49 18 -57 11 -13 14
-11 26 17 27 65 8 124 -32 95z"/>
<path d="M4194 8637 c-8 -21 2 -35 16 -21 5 5 6 15 0 24 -8 12 -10 12 -16 -3z"/>
<path d="M4317 8636 c-3 -8 0 -22 7 -31 10 -15 14 -15 24 -2 14 17 6 47 -13
47 -7 0 -15 -6 -18 -14z"/>
<path d="M4453 8634 c-7 -18 6 -45 25 -52 15 -5 33 33 26 52 -8 21 -43 21 -51
0z"/>
<path d="M4021 8631 c-11 -7 -8 -12 12 -26 32 -21 62 -16 62 10 0 15 -8 21
-30 23 -16 1 -36 -2 -44 -7z"/>
<path d="M4244 8576 c-7 -29 4 -69 17 -61 12 8 12 85 -1 85 -5 0 -12 -11 -16
-24z"/>
<path d="M4400 8580 c-7 -40 -7 -59 0 -70 11 -18 17 20 9 55 -4 17 -8 23 -9
15z"/>
<path d="M4027 8539 c-25 -15 -4 -39 34 -39 22 0 29 5 29 19 0 28 -31 38 -63
20z"/>
<path d="M4180 8496 c0 -15 24 -28 34 -19 13 14 5 33 -14 33 -11 0 -20 -6 -20
-14z"/>
<path d="M4320 8490 c0 -11 7 -20 15 -20 8 0 15 9 15 20 0 11 -7 20 -15 20 -8
0 -15 -9 -15 -20z"/>
<path d="M4454 8495 c-4 -9 -2 -21 4 -27 15 -15 44 -1 40 19 -4 23 -36 29 -44
8z"/>
<path d="M4007 8454 c-3 -4 -2 -15 4 -26 15 -28 84 -22 84 7 0 16 -8 21 -40
23 -23 2 -44 0 -48 -4z"/>
<path d="M4251 8444 c0 -11 3 -14 6 -6 3 7 2 16 -1 19 -3 4 -6 -2 -5 -13z"/>
<path d="M4607 8423 c-11 -10 -8 -88 3 -118 8 -22 13 -25 25 -15 8 6 18 30 24
53 5 23 9 32 10 20 1 -32 22 -73 37 -73 6 0 17 23 24 50 11 45 10 53 -6 71
-17 19 -18 19 -39 -1 l-22 -21 -6 20 c-5 20 -36 29 -50 14z"/>
<path d="M4175 8380 c-8 -14 3 -30 21 -30 8 0 14 9 14 20 0 21 -24 28 -35 10z"/>
<path d="M4317 8383 c-4 -3 -7 -15 -7 -25 0 -23 38 -25 47 -2 8 21 -24 43 -40
27z"/>
<path d="M4457 8383 c-4 -3 -7 -17 -7 -30 0 -20 5 -24 22 -21 26 3 37 36 16
49 -16 11 -23 11 -31 2z"/>
<path d="M4024 8355 c-16 -13 -17 -16 -4 -25 23 -15 60 -12 67 6 6 16 -11 34
-33 34 -5 0 -19 -7 -30 -15z"/>
<path d="M4033 8282 c-14 -2 -23 -10 -23 -22 0 -20 19 -30 56 -30 19 0 24 5
24 24 0 25 -18 34 -57 28z"/>
<path d="M4391 8274 c0 -11 3 -14 6 -6 3 7 2 16 -1 19 -3 4 -6 -2 -5 -13z"/>
<path d="M4176 8265 c-22 -22 -16 -40 14 -40 28 0 35 15 17 39 -13 17 -14 17
-31 1z"/>
<path d="M4307 8263 c-22 -21 7 -71 30 -52 20 17 17 59 -5 59 -10 0 -22 -3
-25 -7z"/>
<path d="M4447 8264 c-12 -13 -8 -51 8 -64 21 -18 47 5 43 39 -3 26 -35 41
-51 25z"/>
<path d="M4020 8175 c-15 -18 -13 -21 22 -30 21 -5 29 -3 34 10 12 31 -34 47
-56 20z"/>
<path d="M4391 8174 c0 -11 3 -14 6 -6 3 7 2 16 -1 19 -3 4 -6 -2 -5 -13z"/>
<path d="M4602 8158 c-15 -15 -15 -61 -1 -110 17 -64 47 -42 50 37 1 27 2 26
12 -12 15 -52 34 -74 47 -54 12 21 22 98 15 121 -7 22 -35 26 -52 9 -9 -9 -16
-8 -28 5 -20 19 -27 20 -43 4z"/>
<path d="M4172 8138 c-17 -17 -15 -35 5 -42 21 -8 36 6 31 30 -4 22 -20 28
-36 12z"/>
<path d="M4304 8136 c-9 -24 0 -51 18 -54 19 -4 35 38 23 57 -9 16 -35 13 -41
-3z"/>
<path d="M4444 8125 c-9 -23 3 -45 26 -45 16 0 20 7 20 30 0 23 -4 30 -20 30
-11 0 -23 -7 -26 -15z"/>
<path d="M4003 8100 c-31 -13 -19 -37 24 -49 40 -11 59 -6 68 17 12 33 -42 52
-92 32z"/>
<path d="M4027 8004 c-17 -17 -5 -34 24 -34 24 0 30 4 27 18 -3 17 -38 29 -51
16z"/>
<path d="M4165 8000 c-3 -6 1 -13 10 -16 19 -8 30 0 20 15 -8 14 -22 14 -30 1z"/>
<path d="M4300 7991 c0 -26 27 -34 39 -12 12 21 5 31 -21 31 -11 0 -18 -7 -18
-19z"/>
<path d="M4443 7994 c-9 -23 13 -40 32 -24 12 10 13 16 4 26 -15 18 -28 18
-36 -2z"/>
<path d="M10276 8991 c-3 -5 1 -12 10 -15 21 -8 56 3 49 15 -8 12 -52 12 -59
0z"/>
<path d="M10285 8900 c-3 -5 3 -10 15 -10 12 0 18 5 15 10 -3 6 -10 10 -15 10
-5 0 -12 -4 -15 -10z"/>
<path d="M10270 8821 c-12 -9 -12 -11 2 -16 21 -8 48 -3 51 10 3 14 -34 17
-53 6z"/>
<path d="M10279 8719 c16 -6 28 -6 35 1 7 7 -1 10 -24 9 -33 0 -34 -1 -11 -10z"/>
<path d="M10261 8646 c-9 -11 -7 -15 11 -20 38 -10 48 -7 48 14 0 24 -41 28
-59 6z"/>
<path d="M10275 8550 c-3 -5 3 -10 15 -10 12 0 18 5 15 10 -3 6 -10 10 -15 10
-5 0 -12 -4 -15 -10z"/>
<path d="M10258 8483 c-30 -8 -8 -33 29 -33 27 0 34 4 31 18 -3 17 -29 24 -60
15z"/>
<path d="M10260 8380 c20 -13 40 -13 40 0 0 6 -12 10 -27 10 -22 0 -25 -2 -13
-10z"/>
<path d="M10232 8303 c-20 -8 17 -32 49 -33 25 0 45 21 32 34 -7 7 -63 7 -81
-1z"/>
<path d="M10236 8211 c15 -15 67 -17 71 -3 3 8 -8 12 -38 12 -26 0 -39 -4 -33
-9z"/>
<path d="M10233 8133 c-23 -9 -14 -21 21 -27 44 -8 71 1 55 20 -11 14 -51 17
-76 7z"/>
<path d="M10247 8043 c-9 -2 -15 -9 -12 -14 8 -12 62 -12 70 1 3 6 2 10 -4 10
-5 0 -15 2 -23 4 -7 2 -21 2 -31 -1z"/>
<path d="M10206 7951 c-7 -11 27 -21 72 -21 22 0 32 5 32 15 0 11 -12 15 -49
15 -28 0 -52 -4 -55 -9z"/>
<path d="M10255 7873 c-41 -10 -39 -23 4 -23 28 0 41 4 39 12 -5 14 -16 17
-43 11z"/>
<path d="M3494 7300 l-30 -120 64 0 c47 0 63 3 59 13 -2 6 -15 60 -27 120 -12
59 -25 107 -29 107 -3 0 -20 -54 -37 -120z"/>
<path d="M7223 7300 l-31 -120 59 0 c41 0 59 4 59 13 0 24 -45 227 -50 227 -3
0 -20 -54 -37 -120z"/>
<path d="M9510 7375 l0 -85 30 0 c46 0 80 39 80 90 0 51 -27 80 -75 80 l-35 0
0 -85z"/>
<path d="M10858 7414 c-8 -11 -58 -207 -58 -223 0 -7 24 -11 59 -11 l58 0 -24
113 c-29 137 -28 133 -35 121z"/>
<path d="M6465 6530 c3 -5 8 -10 11 -10 2 0 4 5 4 10 0 6 -5 10 -11 10 -5 0
-7 -4 -4 -10z"/>
<path d="M8932 6490 c0 -19 2 -27 5 -17 2 9 2 25 0 35 -3 9 -5 1 -5 -18z"/>
<path d="M8907 6361 c-4 -17 -3 -21 5 -13 5 5 8 16 6 23 -3 8 -7 3 -11 -10z"/>
<path d="M9550 6530 c0 -5 5 -10 10 -10 6 0 10 5 10 10 0 6 -4 10 -10 10 -5 0
-10 -4 -10 -10z"/>
<path d="M10062 6500 c0 -14 2 -19 5 -12 2 6 2 18 0 25 -3 6 -5 1 -5 -13z"/>
<path d="M9961 6473 c0 -25 1 -26 9 -8 12 27 12 35 0 35 -5 0 -10 -12 -9 -27z"/>
<path d="M10061 6414 c0 -11 3 -14 6 -6 3 7 2 16 -1 19 -3 4 -6 -2 -5 -13z"/>
<path d="M10345 6540 c-3 -5 -1 -10 4 -10 6 0 11 5 11 10 0 6 -2 10 -4 10 -3
0 -8 -4 -11 -10z"/>
<path d="M10262 6485 c0 -16 2 -22 5 -12 2 9 2 23 0 30 -3 6 -5 -1 -5 -18z"/>
<path d="M10272 6400 c0 -14 2 -19 5 -12 2 6 2 18 0 25 -3 6 -5 1 -5 -13z"/>
<path d="M10270 6300 c0 -5 5 -10 11 -10 5 0 7 5 4 10 -3 6 -8 10 -11 10 -2 0
-4 -4 -4 -10z"/>
<path d="M10335 6280 c-3 -5 -2 -10 4 -10 5 0 13 5 16 10 3 6 2 10 -4 10 -5 0
-13 -4 -16 -10z"/>
<path d="M10860 6529 c0 -11 -9 -14 -35 -11 -33 4 -35 2 -36 -24 -3 -76 7 -97
46 -92 17 3 21 13 26 68 4 36 5 67 3 69 -2 2 -4 -2 -4 -10z"/>
<path d="M12026 6542 c-3 -5 1 -9 9 -9 8 0 12 4 9 9 -3 4 -7 8 -9 8 -2 0 -6
-4 -9 -8z"/>
<path d="M11972 6463 c3 -54 5 -58 27 -58 18 0 31 10 45 35 19 33 19 34 1 20
-12 -10 -16 -11 -11 -2 4 7 5 24 2 38 -5 19 -13 24 -37 24 l-30 0 3 -57z"/>
<path d="M12051 6494 c0 -11 3 -14 6 -6 3 7 2 16 -1 19 -3 4 -6 -2 -5 -13z"/>
<path d="M11942 6465 c0 -16 2 -22 5 -12 2 9 2 23 0 30 -3 6 -5 -1 -5 -18z"/>
<path d="M12051 6404 c0 -11 3 -14 6 -6 3 7 2 16 -1 19 -3 4 -6 -2 -5 -13z"/>
<path d="M12031 6374 c0 -11 3 -14 6 -6 3 7 2 16 -1 19 -3 4 -6 -2 -5 -13z"/>
<path d="M12291 6444 c0 -11 3 -14 6 -6 3 7 2 16 -1 19 -3 4 -6 -2 -5 -13z"/>
<path d="M8441 6454 c0 -11 3 -14 6 -6 3 7 2 16 -1 19 -3 4 -6 -2 -5 -13z"/>
<path d="M8460 6391 c0 -6 4 -13 10 -16 6 -3 7 1 4 9 -7 18 -14 21 -14 7z"/>
<path d="M9475 6290 c3 -5 8 -10 11 -10 2 0 4 5 4 10 0 6 -5 10 -11 10 -5 0
-7 -4 -4 -10z"/>
<path d="M7705 6367 c-4 -10 -5 -21 -1 -24 10 -10 18 4 13 24 -4 17 -4 17 -12
0z"/>
<path d="M5470 6299 c0 -5 5 -7 10 -4 6 3 10 8 10 11 0 2 -4 4 -10 4 -5 0 -10
-5 -10 -11z"/>
</g>
</svg>
